<mxfile host="app.diagrams.net" agent="Mozilla/5.0 (Windows NT 10.0; Win64; x64) AppleWebKit/537.36 (KHTML, like Gecko) Chrome/137.0.0.0 Safari/537.36" version="27.0.9">
  <diagram name="Page-1" id="bKwkr-Iu8h4uWxUQGYjB">
    <mxGraphModel dx="1251" dy="673" grid="1" gridSize="10" guides="1" tooltips="1" connect="1" arrows="1" fold="1" page="1" pageScale="1" pageWidth="1200" pageHeight="1920" math="0" shadow="0">
      <root>
        <mxCell id="0" />
        <mxCell id="1" parent="0" />
        <mxCell id="NgFepgG7j3LGzxHjIcYg-1" value="" style="rounded=0;whiteSpace=wrap;html=1;fillColor=#f5f5f5;fontColor=#333333;strokeColor=#666666;" vertex="1" parent="1">
          <mxGeometry x="360" y="170" width="380" height="370" as="geometry" />
        </mxCell>
        <mxCell id="NgFepgG7j3LGzxHjIcYg-2" value="TCP/IP + TLS" style="rounded=0;whiteSpace=wrap;html=1;fillColor=#dae8fc;strokeColor=#6c8ebf;" vertex="1" parent="1">
          <mxGeometry x="370" y="470" width="360" height="60" as="geometry" />
        </mxCell>
        <mxCell id="NgFepgG7j3LGzxHjIcYg-4" value="Circuit Manager" style="rounded=0;whiteSpace=wrap;html=1;fillColor=#d5e8d4;strokeColor=#82b366;" vertex="1" parent="1">
          <mxGeometry x="495" y="320" width="110" height="60" as="geometry" />
        </mxCell>
        <mxCell id="NgFepgG7j3LGzxHjIcYg-5" value="Circuit Queue" style="rounded=0;whiteSpace=wrap;html=1;fillColor=#d5e8d4;strokeColor=#82b366;" vertex="1" parent="1">
          <mxGeometry x="620" y="320" width="110" height="60" as="geometry" />
        </mxCell>
        <mxCell id="NgFepgG7j3LGzxHjIcYg-8" value="Torrc&lt;div&gt;(Config File)&lt;/div&gt;" style="shape=card;whiteSpace=wrap;html=1;fillColor=#ffe6cc;strokeColor=#d79b00;" vertex="1" parent="1">
          <mxGeometry x="360" y="90" width="100" height="60" as="geometry" />
        </mxCell>
        <mxCell id="NgFepgG7j3LGzxHjIcYg-14" value="Input Buffer" style="rounded=0;whiteSpace=wrap;html=1;fillColor=#d5e8d4;strokeColor=#82b366;" vertex="1" parent="1">
          <mxGeometry x="370" y="390" width="170" height="60" as="geometry" />
        </mxCell>
        <mxCell id="NgFepgG7j3LGzxHjIcYg-15" value="Output Buffer" style="rounded=0;whiteSpace=wrap;html=1;fillColor=#d5e8d4;strokeColor=#82b366;" vertex="1" parent="1">
          <mxGeometry x="560" y="390" width="170" height="60" as="geometry" />
        </mxCell>
        <mxCell id="NgFepgG7j3LGzxHjIcYg-16" value="Cell Parser" style="rounded=0;whiteSpace=wrap;html=1;fillColor=#d5e8d4;strokeColor=#82b366;" vertex="1" parent="1">
          <mxGeometry x="370" y="320" width="110" height="60" as="geometry" />
        </mxCell>
        <mxCell id="NgFepgG7j3LGzxHjIcYg-18" value="" style="group;fillColor=#d5e8d4;strokeColor=#82b366;" vertex="1" connectable="0" parent="1">
          <mxGeometry x="370" y="180" width="170" height="130" as="geometry" />
        </mxCell>
        <mxCell id="NgFepgG7j3LGzxHjIcYg-7" value="Onion Routing Protocol" style="rounded=0;whiteSpace=wrap;html=1;verticalAlign=top;fillColor=#d5e8d4;strokeColor=#82b366;" vertex="1" parent="NgFepgG7j3LGzxHjIcYg-18">
          <mxGeometry width="170" height="130" as="geometry" />
        </mxCell>
        <mxCell id="NgFepgG7j3LGzxHjIcYg-12" value="Encryption" style="rounded=0;whiteSpace=wrap;html=1;" vertex="1" parent="NgFepgG7j3LGzxHjIcYg-18">
          <mxGeometry x="30.909090909090907" y="45" width="108.18181818181817" height="30" as="geometry" />
        </mxCell>
        <mxCell id="NgFepgG7j3LGzxHjIcYg-13" value="Decryption" style="rounded=0;whiteSpace=wrap;html=1;" vertex="1" parent="NgFepgG7j3LGzxHjIcYg-18">
          <mxGeometry x="30.909090909090907" y="90" width="108.18181818181817" height="30" as="geometry" />
        </mxCell>
        <mxCell id="NgFepgG7j3LGzxHjIcYg-19" value="" style="group;fillColor=#d5e8d4;strokeColor=#82b366;" vertex="1" connectable="0" parent="1">
          <mxGeometry x="620" y="180" width="110" height="130" as="geometry" />
        </mxCell>
        <mxCell id="NgFepgG7j3LGzxHjIcYg-20" value="" style="group" vertex="1" connectable="0" parent="NgFepgG7j3LGzxHjIcYg-19">
          <mxGeometry x="-60" width="170" height="130" as="geometry" />
        </mxCell>
        <mxCell id="NgFepgG7j3LGzxHjIcYg-3" value="Scheduler" style="rounded=0;whiteSpace=wrap;html=1;labelPosition=center;verticalLabelPosition=middle;align=center;verticalAlign=top;fillColor=#d5e8d4;strokeColor=#82b366;" vertex="1" parent="NgFepgG7j3LGzxHjIcYg-20">
          <mxGeometry width="170" height="130" as="geometry" />
        </mxCell>
        <mxCell id="NgFepgG7j3LGzxHjIcYg-9" value="KIST" style="rounded=0;whiteSpace=wrap;html=1;" vertex="1" parent="NgFepgG7j3LGzxHjIcYg-20">
          <mxGeometry x="30.909090909090907" y="45" width="108.18181818181817" height="30" as="geometry" />
        </mxCell>
        <mxCell id="NgFepgG7j3LGzxHjIcYg-10" value="Vanilla" style="rounded=0;whiteSpace=wrap;html=1;" vertex="1" parent="NgFepgG7j3LGzxHjIcYg-20">
          <mxGeometry x="30.909090909090907" y="90" width="108.18181818181817" height="30" as="geometry" />
        </mxCell>
      </root>
    </mxGraphModel>
  </diagram>
</mxfile>
